<svg xmlns="http://www.w3.org/2000/svg" viewBox="0 0 512 512">
  <defs>
    <linearGradient id="g" x1="0" y1="0" x2="1" y2="1">
      <stop offset="0" stop-color="#6ee7ff" />
      <stop offset="1" stop-color="#b2ff9e" />
    </linearGradient>
    <filter id="s" x="-20%" y="-20%" width="140%" height="140%">
      <feDropShadow dx="0" dy="18" stdDeviation="18" flood-color="#000" flood-opacity="0.35" />
    </filter>
  </defs>
  <rect x="44" y="44" width="424" height="424" rx="132" fill="url(#g)" filter="url(#s)" />
  <path
    d="M166 225c0-43 35-78 78-78h52c43 0 78 35 78 78v58c0 43-35 78-78 78h-25l-51 42c-8 7-20 1-20-9v-33c-19-14-34-37-34-61v-75z"
    fill="rgba(0,0,0,0.78)"
  />
  <path
    d="M212 252c0-10 8-18 18-18h52c10 0 18 8 18 18s-8 18-18 18h-52c-10 0-18-8-18-18zm0 64c0-10 8-18 18-18h86c10 0 18 8 18 18s-8 18-18 18h-86c-10 0-18-8-18-18z"
    fill="rgba(255,255,255,0.92)"
  />
</svg>
